<?xml version="1.0" encoding="UTF-8"?>
<svg width="208px" height="15px" viewBox="0 0 208 15" version="1.1" xmlns="http://www.w3.org/2000/svg" xmlns:xlink="http://www.w3.org/1999/xlink">
    <title>直线 2备份 7</title>
    <g id="页面-5" stroke="none" stroke-width="1" fill="none" fill-rule="evenodd">
        <path id="直线-2备份-7" d="M14.5,0.5 L14.5,6.5 L22.5,6.5 L22.5,8.5 L14.5,8.5 L14.5,14.5 L0.5,7.5 L14.5,0.5 Z M193.5,0.5 L207.5,7.5 L193.5,14.5 L193.5,8.5 L188.5,8.5 L188.5,6.5 L193.5,6.5 L193.5,0.5 Z M38.5,6.5 L38.5,8.5 L28.5,8.5 L28.5,6.5 L38.5,6.5 Z M54.5,6.5 L54.5,8.5 L44.5,8.5 L44.5,6.5 L54.5,6.5 Z M70.5,6.5 L70.5,8.5 L60.5,8.5 L60.5,6.5 L70.5,6.5 Z M86.5,6.5 L86.5,8.5 L76.5,8.5 L76.5,6.5 L86.5,6.5 Z M102.5,6.5 L102.5,8.5 L92.5,8.5 L92.5,6.5 L102.5,6.5 Z M118.5,6.5 L118.5,8.5 L108.5,8.5 L108.5,6.5 L118.5,6.5 Z M134.5,6.5 L134.5,8.5 L124.5,8.5 L124.5,6.5 L134.5,6.5 Z M150.5,6.5 L150.5,8.5 L140.5,8.5 L140.5,6.5 L150.5,6.5 Z M166.5,6.5 L166.5,8.5 L156.5,8.5 L156.5,6.5 L166.5,6.5 Z M182.5,6.5 L182.5,8.5 L172.5,8.5 L172.5,6.5 L182.5,6.5 Z" fill="#1A5BEC" fill-rule="nonzero"></path>
    </g>
</svg>