<?xml version="1.0" encoding="UTF-8"?>
<svg width="209px" height="15px" viewBox="0 0 209 15" version="1.1" xmlns="http://www.w3.org/2000/svg" xmlns:xlink="http://www.w3.org/1999/xlink">
    <title>直线 2备份 5</title>
    <g id="页面-5" stroke="none" stroke-width="1" fill="none" fill-rule="evenodd">
        <path id="直线-2备份-5" d="M194.5,0.5 L208.5,7.5 L194.5,14.5 L194.5,8.5 L192.5,8.5 L192.5,6.5 L194.5,6.5 L194.5,0.5 Z M10.5,6.5 L10.5,8.5 L0.5,8.5 L0.5,6.5 L10.5,6.5 Z M26.5,6.5 L26.5,8.5 L16.5,8.5 L16.5,6.5 L26.5,6.5 Z M42.5,6.5 L42.5,8.5 L32.5,8.5 L32.5,6.5 L42.5,6.5 Z M58.5,6.5 L58.5,8.5 L48.5,8.5 L48.5,6.5 L58.5,6.5 Z M74.5,6.5 L74.5,8.5 L64.5,8.5 L64.5,6.5 L74.5,6.5 Z M90.5,6.5 L90.5,8.5 L80.5,8.5 L80.5,6.5 L90.5,6.5 Z M106.5,6.5 L106.5,8.5 L96.5,8.5 L96.5,6.5 L106.5,6.5 Z M122.5,6.5 L122.5,8.5 L112.5,8.5 L112.5,6.5 L122.5,6.5 Z M138.5,6.5 L138.5,8.5 L128.5,8.5 L128.5,6.5 L138.5,6.5 Z M154.5,6.5 L154.5,8.5 L144.5,8.5 L144.5,6.5 L154.5,6.5 Z M170.5,6.5 L170.5,8.5 L160.5,8.5 L160.5,6.5 L170.5,6.5 Z M186.5,6.5 L186.5,8.5 L176.5,8.5 L176.5,6.5 L186.5,6.5 Z" fill="#1A5BEC" fill-rule="nonzero"></path>
    </g>
</svg>