<?xml version="1.0" encoding="UTF-8"?>
<svg width="125px" height="88px" viewBox="0 0 125 88" version="1.1" xmlns="http://www.w3.org/2000/svg" xmlns:xlink="http://www.w3.org/1999/xlink">
    <title>直线 2备份 6</title>
    <g id="页面-5" stroke="none" stroke-width="1" fill="none" fill-rule="evenodd">
        <path id="直线-2备份-6" d="M124.233058,80.9550982 L110.233058,73.9550982 L110.233058,87.9550982 L124.233058,80.9550982 Z M52.4085742,78.5914258 L52.408,79.955 L59.0449018,79.9550982 L59.0449018,81.9550982 L50.4085742,81.9550982 L50.4085742,78.5914258 L52.4085742,78.5914258 Z M75.0449018,79.9550982 L75.0449018,81.9550982 L65.0449018,81.9550982 L65.0449018,79.9550982 L75.0449018,79.9550982 Z M91.0449018,79.9550982 L91.0449018,81.9550982 L81.0449018,81.9550982 L81.0449018,79.9550982 L91.0449018,79.9550982 Z M107.044902,79.9550982 L107.044902,81.9550982 L97.0449018,81.9550982 L97.0449018,79.9550982 L107.044902,79.9550982 Z M52.4085742,62.5914258 L52.4085742,72.5914258 L50.4085742,72.5914258 L50.4085742,62.5914258 L52.4085742,62.5914258 Z M52.4085742,46.5914258 L52.4085742,56.5914258 L50.4085742,56.5914258 L50.4085742,46.5914258 L52.4085742,46.5914258 Z M52.4085742,30.5914258 L52.4085742,40.5914258 L50.4085742,40.5914258 L50.4085742,30.5914258 L52.4085742,30.5914258 Z M52.4085742,14.5914258 L52.4085742,24.5914258 L50.4085742,24.5914258 L50.4085742,14.5914258 L52.4085742,14.5914258 Z M52.4085742,0.5 L52.4085742,8.59142575 L50.4085742,8.59142575 L50.408,2.5 L48.5,2.5 L48.5,0.5 L52.4085742,0.5 Z M10.5,0.5 L10.5,2.5 L0.5,2.5 L0.5,0.5 L10.5,0.5 Z M26.5,0.5 L26.5,2.5 L16.5,2.5 L16.5,0.5 L26.5,0.5 Z M42.5,0.5 L42.5,2.5 L32.5,2.5 L32.5,0.5 L42.5,0.5 Z" fill="#1A5BEC" fill-rule="nonzero"></path>
    </g>
</svg>